<?xml version="1.0" encoding="UTF-8" standalone="no"?>
<!DOCTYPE svg PUBLIC "-//W3C//DTD SVG 1.1//EN"
 "http://www.w3.org/Graphics/SVG/1.1/DTD/svg11.dtd">
<!-- Generated by graphviz version 10.0.1 (0)
 -->
<!-- Pages: 1 -->
<svg width="1152pt" height="237pt"
 viewBox="0.00 0.00 1151.50 237.00" xmlns="http://www.w3.org/2000/svg" xmlns:xlink="http://www.w3.org/1999/xlink">
<g id="graph0" class="graph" transform="scale(1 1) rotate(0) translate(4 233)">
<polygon fill="white" stroke="none" points="-4,4 -4,-233 1147.5,-233 1147.5,4 -4,4"/>
<!-- 132691766318672 -->
<g id="node1" class="node">
<title>132691766318672</title>
<polygon fill="none" stroke="black" points="314,-192.5 314,-228.5 506.5,-228.5 506.5,-192.5 314,-192.5"/>
<text text-anchor="middle" x="357.25" y="-205.7" font-family="Times,serif" font-size="14.00">value 0.0665</text>
<polyline fill="none" stroke="black" points="400.5,-193 400.5,-228.5"/>
<text text-anchor="middle" x="453.5" y="-205.7" font-family="Times,serif" font-size="14.00">gradient &#45;2.0000</text>
</g>
<!-- 132691766481552* -->
<g id="node3" class="node">
<title>132691766481552*</title>
<ellipse fill="none" stroke="black" cx="569.5" cy="-155.5" rx="27" ry="18"/>
<text text-anchor="middle" x="569.5" y="-150.45" font-family="Times,serif" font-size="14.00">*</text>
</g>
<!-- 132691766318672&#45;&gt;132691766481552* -->
<g id="edge12" class="edge">
<title>132691766318672&#45;&gt;132691766481552*</title>
<path fill="none" stroke="black" d="M480.83,-192.07C489.53,-189.39 498.27,-186.51 506.5,-183.5 516.49,-179.85 527.13,-175.3 536.73,-170.94"/>
<polygon fill="black" stroke="black" points="538.06,-174.18 545.65,-166.79 535.1,-167.83 538.06,-174.18"/>
</g>
<!-- 132691766481552 -->
<g id="node2" class="node">
<title>132691766481552</title>
<polygon fill="none" stroke="black" points="632.5,-137.5 632.5,-173.5 825,-173.5 825,-137.5 632.5,-137.5"/>
<text text-anchor="middle" x="678" y="-150.7" font-family="Times,serif" font-size="14.00">value &#45;1.9335</text>
<polyline fill="none" stroke="black" points="723.5,-138 723.5,-173.5"/>
<text text-anchor="middle" x="774.25" y="-150.7" font-family="Times,serif" font-size="14.00">gradient 1.0000</text>
</g>
<!-- 132691766481680+ -->
<g id="node9" class="node">
<title>132691766481680+</title>
<ellipse fill="none" stroke="black" cx="888" cy="-127.5" rx="27" ry="18"/>
<text text-anchor="middle" x="888" y="-122.45" font-family="Times,serif" font-size="14.00">+</text>
</g>
<!-- 132691766481552&#45;&gt;132691766481680+ -->
<g id="edge10" class="edge">
<title>132691766481552&#45;&gt;132691766481680+</title>
<path fill="none" stroke="black" d="M825.3,-138.49C834.1,-136.92 842.6,-135.41 850.34,-134.03"/>
<polygon fill="black" stroke="black" points="850.7,-137.52 859.93,-132.32 849.48,-130.63 850.7,-137.52"/>
</g>
<!-- 132691766481552*&#45;&gt;132691766481552 -->
<g id="edge1" class="edge">
<title>132691766481552*&#45;&gt;132691766481552</title>
<path fill="none" stroke="black" d="M596.82,-155.5C603.95,-155.5 612.13,-155.5 620.85,-155.5"/>
<polygon fill="black" stroke="black" points="620.62,-159 630.62,-155.5 620.62,-152 620.62,-159"/>
</g>
<!-- 132691768291984 -->
<g id="node4" class="node">
<title>132691768291984</title>
<polygon fill="none" stroke="black" points="0,-55.5 0,-91.5 188,-91.5 188,-55.5 0,-55.5"/>
<text text-anchor="middle" x="43.25" y="-68.7" font-family="Times,serif" font-size="14.00">value 1.0000</text>
<polyline fill="none" stroke="black" points="86.5,-56 86.5,-91.5"/>
<text text-anchor="middle" x="137.25" y="-68.7" font-family="Times,serif" font-size="14.00">gradient 0.2355</text>
</g>
<!-- 132691768292304* -->
<g id="node13" class="node">
<title>132691768292304*</title>
<ellipse fill="none" stroke="black" cx="251" cy="-45.5" rx="27" ry="18"/>
<text text-anchor="middle" x="251" y="-40.45" font-family="Times,serif" font-size="14.00">*</text>
</g>
<!-- 132691768291984&#45;&gt;132691768292304* -->
<g id="edge5" class="edge">
<title>132691768291984&#45;&gt;132691768292304*</title>
<path fill="none" stroke="black" d="M188.29,-56.65C197.07,-55.06 205.55,-53.53 213.29,-52.13"/>
<polygon fill="black" stroke="black" points="213.67,-55.62 222.89,-50.4 212.42,-48.73 213.67,-55.62"/>
</g>
<!-- 132691768291792 -->
<g id="node5" class="node">
<title>132691768291792</title>
<polygon fill="none" stroke="black" points="316.25,-82.5 316.25,-118.5 504.25,-118.5 504.25,-82.5 316.25,-82.5"/>
<text text-anchor="middle" x="359.5" y="-95.7" font-family="Times,serif" font-size="14.00">value 0.0000</text>
<polyline fill="none" stroke="black" points="402.75,-83 402.75,-118.5"/>
<text text-anchor="middle" x="453.5" y="-95.7" font-family="Times,serif" font-size="14.00">gradient 1.0000</text>
</g>
<!-- 132691766479568+ -->
<g id="node7" class="node">
<title>132691766479568+</title>
<ellipse fill="none" stroke="black" cx="569.5" cy="-100.5" rx="27" ry="18"/>
<text text-anchor="middle" x="569.5" y="-95.45" font-family="Times,serif" font-size="14.00">+</text>
</g>
<!-- 132691768291792&#45;&gt;132691766479568+ -->
<g id="edge6" class="edge">
<title>132691768291792&#45;&gt;132691766479568+</title>
<path fill="none" stroke="black" d="M504.54,-100.5C513.78,-100.5 522.74,-100.5 530.89,-100.5"/>
<polygon fill="black" stroke="black" points="530.67,-104 540.67,-100.5 530.67,-97 530.67,-104"/>
</g>
<!-- 132691766479568 -->
<g id="node6" class="node">
<title>132691766479568</title>
<polygon fill="none" stroke="black" points="634.75,-82.5 634.75,-118.5 822.75,-118.5 822.75,-82.5 634.75,-82.5"/>
<text text-anchor="middle" x="678" y="-95.7" font-family="Times,serif" font-size="14.00">value 1.2355</text>
<polyline fill="none" stroke="black" points="721.25,-83 721.25,-118.5"/>
<text text-anchor="middle" x="772" y="-95.7" font-family="Times,serif" font-size="14.00">gradient 1.0000</text>
</g>
<!-- 132691766479568&#45;&gt;132691766481680+ -->
<g id="edge8" class="edge">
<title>132691766479568&#45;&gt;132691766481680+</title>
<path fill="none" stroke="black" d="M823.04,-116.52C832.57,-118.15 841.8,-119.74 850.15,-121.17"/>
<polygon fill="black" stroke="black" points="849.36,-124.59 859.81,-122.83 850.54,-117.69 849.36,-124.59"/>
</g>
<!-- 132691766479568+&#45;&gt;132691766479568 -->
<g id="edge2" class="edge">
<title>132691766479568+&#45;&gt;132691766479568</title>
<path fill="none" stroke="black" d="M596.82,-100.5C604.55,-100.5 613.51,-100.5 623.05,-100.5"/>
<polygon fill="black" stroke="black" points="622.97,-104 632.97,-100.5 622.97,-97 622.97,-104"/>
</g>
<!-- 132691766481680 -->
<g id="node8" class="node">
<title>132691766481680</title>
<polygon fill="none" stroke="black" points="951,-109.5 951,-145.5 1143.5,-145.5 1143.5,-109.5 951,-109.5"/>
<text text-anchor="middle" x="996.5" y="-122.7" font-family="Times,serif" font-size="14.00">value &#45;0.6980</text>
<polyline fill="none" stroke="black" points="1042,-110 1042,-145.5"/>
<text text-anchor="middle" x="1092.75" y="-122.7" font-family="Times,serif" font-size="14.00">gradient 1.0000</text>
</g>
<!-- 132691766481680+&#45;&gt;132691766481680 -->
<g id="edge3" class="edge">
<title>132691766481680+&#45;&gt;132691766481680</title>
<path fill="none" stroke="black" d="M915.32,-127.5C922.45,-127.5 930.63,-127.5 939.35,-127.5"/>
<polygon fill="black" stroke="black" points="939.12,-131 949.12,-127.5 939.12,-124 939.12,-131"/>
</g>
<!-- 132691768292112 -->
<g id="node10" class="node">
<title>132691768292112</title>
<polygon fill="none" stroke="black" points="314,-137.5 314,-173.5 506.5,-173.5 506.5,-137.5 314,-137.5"/>
<text text-anchor="middle" x="359.5" y="-150.7" font-family="Times,serif" font-size="14.00">value &#45;2.0000</text>
<polyline fill="none" stroke="black" points="405,-138 405,-173.5"/>
<text text-anchor="middle" x="455.75" y="-150.7" font-family="Times,serif" font-size="14.00">gradient 0.0665</text>
</g>
<!-- 132691768292112&#45;&gt;132691766481552* -->
<g id="edge9" class="edge">
<title>132691768292112&#45;&gt;132691766481552*</title>
<path fill="none" stroke="black" d="M506.8,-155.5C515.14,-155.5 523.22,-155.5 530.62,-155.5"/>
<polygon fill="black" stroke="black" points="530.51,-159 540.51,-155.5 530.51,-152 530.51,-159"/>
</g>
<!-- 132691768246672 -->
<g id="node11" class="node">
<title>132691768246672</title>
<polygon fill="none" stroke="black" points="0,-0.5 0,-36.5 188,-36.5 188,-0.5 0,-0.5"/>
<text text-anchor="middle" x="43.25" y="-13.7" font-family="Times,serif" font-size="14.00">value 0.2355</text>
<polyline fill="none" stroke="black" points="86.5,-1 86.5,-36.5"/>
<text text-anchor="middle" x="137.25" y="-13.7" font-family="Times,serif" font-size="14.00">gradient 1.0000</text>
</g>
<!-- 132691768246672&#45;&gt;132691768292304* -->
<g id="edge11" class="edge">
<title>132691768246672&#45;&gt;132691768292304*</title>
<path fill="none" stroke="black" d="M188.29,-34.75C197.07,-36.28 205.55,-37.76 213.29,-39.1"/>
<polygon fill="black" stroke="black" points="212.43,-42.51 222.89,-40.78 213.63,-35.61 212.43,-42.51"/>
</g>
<!-- 132691768292304 -->
<g id="node12" class="node">
<title>132691768292304</title>
<polygon fill="none" stroke="black" points="316.25,-27.5 316.25,-63.5 504.25,-63.5 504.25,-27.5 316.25,-27.5"/>
<text text-anchor="middle" x="359.5" y="-40.7" font-family="Times,serif" font-size="14.00">value 1.2355</text>
<polyline fill="none" stroke="black" points="402.75,-28 402.75,-63.5"/>
<text text-anchor="middle" x="453.5" y="-40.7" font-family="Times,serif" font-size="14.00">gradient 1.0000</text>
</g>
<!-- 132691768292304&#45;&gt;132691766479568+ -->
<g id="edge7" class="edge">
<title>132691768292304&#45;&gt;132691766479568+</title>
<path fill="none" stroke="black" d="M480.83,-63.93C489.53,-66.61 498.27,-69.49 506.5,-72.5 516.49,-76.15 527.13,-80.7 536.73,-85.06"/>
<polygon fill="black" stroke="black" points="535.1,-88.17 545.65,-89.21 538.06,-81.82 535.1,-88.17"/>
</g>
<!-- 132691768292304*&#45;&gt;132691768292304 -->
<g id="edge4" class="edge">
<title>132691768292304*&#45;&gt;132691768292304</title>
<path fill="none" stroke="black" d="M278.32,-45.5C286.05,-45.5 295.01,-45.5 304.55,-45.5"/>
<polygon fill="black" stroke="black" points="304.47,-49 314.47,-45.5 304.47,-42 304.47,-49"/>
</g>
</g>
</svg>
